PathFileType	4	(X/Y/Z)	Patient4_TMGait_0pt4_03_left_14.trc.trc
DataRate	CameraRate	NumFrames	NumMarkers	Units	OrigDataRate	OrigDataStartFrame	OrigNumFrames
74.074074074074	74.074074074074	4	33	mm	74.074074074074	36	       141
Frame#	Time	Sacral			L.Shoulder			Chest			R.Shoulder			Neck			R.ASIS			L.ASIS			R.Thigh.Superior			R.Thigh.Lateral			R.Thigh.Inferior			R.Patella			L.Thigh.Superior			L.Thigh.Lateral			L.Thigh.Inferior			L.Patella			L.Shank.Superior			L.Shank.Lateral			L.Shank.Inferior			R.Shank.Superior			R.Shank.Lateral			R.Shank.Inferior			R.Heel			R.Midfoot.Superior			R.Midfoot.Lateral			R.Toe			L.Heel			L.Midfoot.Lateral			L.Midfoot.Superior			L.Toe			L.Elbow			L.Wrist			R.Elbow			R.Wrist			
		X1	Y1	Z1	X2	Y2	Z2	X3	Y3	Z3	X4	Y4	Z4	X5	Y5	Z5	X6	Y6	Z6	X7	Y7	Z7	X8	Y8	Z8	X9	Y9	Z9	X10	Y10	Z10	X11	Y11	Z11	X12	Y12	Z12	X13	Y13	Z13	X14	Y14	Z14	X15	Y15	Z15	X16	Y16	Z16	X17	Y17	Z17	X18	Y18	Z18	X19	Y19	Z19	X20	Y20	Z20	X21	Y21	Z21	X22	Y22	Z22	X23	Y23	Z23	X24	Y24	Z24	X25	Y25	Z25	X26	Y26	Z26	X27	Y27	Z27	X28	Y28	Z28	X29	Y29	Z29	X30	Y30	Z30	X31	Y31	Z31	X32	Y32	Z32	X33	Y33	Z33	

36	18.502500000000	844.686279223899	1004.967345326741	484.538579965786	1010.179896299553	1428.594195813204	292.963539010585	1128.568568958029	1358.669551954274	442.607129953154	1064.742315030482	1431.816479491182	624.882714063689	1010.951359645438	1491.019068601641	450.311360650749	1076.496597808493	934.562197238723	590.161803602583	1050.749722182605	956.559526246681	316.732739456241	1077.701171302186	722.413641018585	567.455927181518	976.537681266143	627.635337953554	632.115983250608	1041.168351421259	560.072315835407	556.348833559478	1023.279641069335	466.244604163862	567.964004095326	1121.023884838505	762.578091029997	350.396681603303	1056.721933618607	636.059275205109	279.731220578474	1152.784871648528	569.592937463011	341.941642824327	1163.502739039217	497.137469322489	346.455975120419	1136.748197849795	423.227113234639	335.308627774881	1050.853984491535	310.359121919711	276.025070194073	1101.476331299259	195.322757310704	340.067511240734	967.437777393253	389.746203212630	575.504274269268	868.258448666158	313.810760308881	640.680436618138	880.821163887285	208.223345036051	581.435481398132	709.742785390603	69.843992858201	557.262038451436	886.170808395952	99.915992925631	591.676665394059	792.458149671879	48.202864536921	629.045998910905	998.700979898425	37.778550725722	616.503429333553	976.071059448534	39.078533975742	369.998114162659	1051.776219902341	36.414189422026	291.455415807354	1134.128692985702	97.427075846094	321.989497364840	1263.382502554821	45.158281784255	294.749290279350	916.591661853757	1088.206716710638	183.228524256001	982.539397478279	834.678873986776	151.332297804453	1093.138175138704	1086.640936968679	751.922047308560	1282.149528166208	915.289858149400	706.814181140702	
37	18.516000000000	845.062376142777	1005.563207656463	480.615495995463	1011.426726202729	1429.124781077601	289.161007662837	1129.178193941885	1359.490977186174	439.406622627911	1064.487561700543	1432.809931527541	621.287450767170	1011.467196338122	1491.672042250945	446.437143058480	1076.758923198790	935.427049201022	587.106724006821	1051.948213390422	957.130394545521	313.650316806711	1079.917064992287	723.303367245755	565.034192176313	980.040377227883	627.814724433279	630.017722854697	1045.861757125481	560.345470941238	554.726372503511	1028.843419325999	465.104571876439	567.943677333449	1121.534540885061	762.155872098978	347.221463020946	1055.638301549890	635.740831120509	277.857305806889	1151.136504236511	568.754990627855	340.211152980481	1161.267037680757	496.454940135395	345.500064154022	1134.139087839546	422.558110017900	334.565816210789	1047.876384639388	310.050790288490	275.202768914454	1097.157696091873	194.919615049289	339.981352990261	970.730048749724	389.714841521569	575.319884550070	869.272278182065	316.401679046658	639.917597918165	880.175682876321	210.097354551666	581.743068517266	706.004407064084	75.450845173604	557.651767724754	883.230454199657	100.683500612928	592.165724935496	788.129680413407	51.023161982723	629.175240910831	993.617543766070	37.612826039421	616.354683018527	970.658079367860	39.100855776549	369.961859892274	1046.372866549550	36.388451721945	291.436272169257	1128.832344865821	97.282995877887	322.048473426582	1258.077026715324	44.655241557557	294.725852162269	919.907850075817	1088.461209695080	178.188679696386	991.939219740866	836.413308553926	147.042281805279	1088.527156946544	1087.503411984083	748.894924775506	1271.606571863143	908.365597562058	708.325028453995	
38	18.529500000000	845.351552652734	1006.146960815329	476.656869102910	1012.765483908052	1429.704205203318	285.358908951948	1129.734638128510	1360.338749194701	436.296685874657	1064.024780175292	1433.788719850875	617.736680385346	1011.905823375843	1492.331646806371	442.571856141142	1076.906736827657	936.340933314609	584.045092815753	1053.102182632099	957.692947327460	310.612573350185	1082.635039261141	724.351136147163	562.676919327757	984.375617995237	627.953558086236	628.020453558075	1051.624260413042	560.729383842208	553.229093653240	1035.550106471586	464.030982646170	568.090928932178	1121.789851059417	761.563128275257	344.112480503552	1054.336474015389	635.453271722552	275.916085716659	1149.152022770390	567.898637975336	338.522666689610	1158.666622156602	495.750071825809	344.455292743037	1131.189539208113	421.893179545030	333.701735323104	1044.565564540903	309.690216771972	274.351156564166	1092.666373926186	194.533303303488	339.843125083497	975.126309551524	389.752288920719	575.317077276114	871.281236022284	319.338246077599	639.260823123501	880.323393720177	212.320520028436	582.217616402738	702.832987548819	82.070309390147	558.156336356974	880.757573735458	101.579614770303	592.742755253395	784.121517067854	54.487672762101	629.372671994543	988.550826021017	37.432124577471	616.189143765781	965.174102561564	39.109538337260	369.920812243871	1040.907308607413	36.335668597618	291.415812304711	1123.469025098804	97.112508629724	322.106578037654	1252.708355605214	44.151984105619	294.739431538798	923.228843722322	1088.861604992249	173.051874048224	1001.670095084755	838.526154132198	142.841001241739	1083.606253150510	1088.407633156272	745.854631788383	1260.294145964113	901.542284950170	710.208140066920	
39	18.543000000000	845.547740343047	1006.690311989237	472.704140605773	1014.188454283430	1430.293328394605	281.577547564384	1130.238367170594	1361.163338847236	433.287268845496	1063.376769283371	1434.718094812218	614.241938496977	1012.273089814495	1492.964573276210	438.731067951688	1076.916072421093	937.254954358357	581.004962529414	1054.178115147026	958.228956479597	307.626130156761	1085.858431802226	725.569159533049	560.379013663127	989.582310183790	628.061340055494	626.147873570645	1058.471373013058	561.256187160282	551.856805669676	1043.412066732954	463.083096048369	568.364180891166	1121.786601991081	760.849132352331	341.109347338517	1052.864090548334	635.214618616345	273.897937281125	1146.886115817759	567.048172661756	336.852698195003	1155.753803816976	495.037664245857	343.303879309870	1127.957019239923	421.237995623348	332.706986715409	1040.982094707347	309.289462524385	273.449491221270	1088.041998201632	194.171159631096	339.641900381220	980.674872862767	389.888141496691	575.464964131356	874.378508797343	322.649559586634	638.709784492114	881.341848702545	214.943915697145	582.844512391363	700.371067322266	89.844976910912	558.766833395565	878.794691721159	102.667073500634	593.396083086348	780.514929536270	58.738832877672	629.640802558029	983.497415760616	37.189521576293	616.029951260691	959.656166744894	39.107698169588	369.865835780044	1035.411468436686	36.265165446088	291.380065858666	1118.063760897939	96.935136447285	322.144502811831	1247.303511193457	43.685066648578	294.765102370073	926.588093442672	1089.371812138457	167.806347002595	1011.699905734289	840.991054502705	138.755144511046	1078.343867873224	1089.322285544512	742.831230373262	1248.239660414889	894.929962338799	712.419118968131	
